<svg width="106" height="26" viewBox="0 0 106 26" fill="none" xmlns="http://www.w3.org/2000/svg">
<path d="M44.672 9.37H50.306V6.4H44.672V9.37ZM44.672 14.266H50.126V11.512H44.672V14.266ZM42.296 6.4V19H45.644V6.4H42.296ZM55.1445 15.76V10.72H51.8865V16.084C51.8865 17.068 52.1145 17.836 52.5705 18.388C53.0265 18.928 53.7945 19.198 54.8745 19.198C55.4985 19.198 56.0145 19.072 56.4225 18.82C56.8425 18.556 57.1725 18.208 57.4125 17.776V19H60.5265V10.72H57.4125V15.76C57.4125 16.06 57.3585 16.312 57.2505 16.516C57.1545 16.72 57.0165 16.87 56.8365 16.966C56.6565 17.062 56.4345 17.11 56.1705 17.11C55.7745 17.11 55.5045 16.996 55.3605 16.768C55.2165 16.528 55.1445 16.192 55.1445 15.76ZM65.5457 10.72H62.5037V19H65.5457V10.72ZM67.9037 13.906L69.1997 11.224C69.0677 11.02 68.8637 10.852 68.5877 10.72C68.3117 10.576 68.0237 10.504 67.7237 10.504C67.2437 10.504 66.7817 10.66 66.3377 10.972C65.9057 11.272 65.5577 11.68 65.2937 12.196C65.0297 12.712 64.8977 13.3 64.8977 13.96L65.5457 15.202C65.5457 14.806 65.5997 14.476 65.7077 14.212C65.8277 13.948 65.9897 13.75 66.1937 13.618C66.3977 13.486 66.6197 13.42 66.8597 13.42C67.0997 13.42 67.2977 13.468 67.4537 13.564C67.6217 13.648 67.7717 13.762 67.9037 13.906ZM75.6552 13.96V19H78.9132V13.636C78.9132 12.652 78.6852 11.89 78.2292 11.35C77.7732 10.798 77.0052 10.522 75.9252 10.522C75.2892 10.522 74.7612 10.654 74.3412 10.918C73.9332 11.17 73.6152 11.512 73.3872 11.944V10.72H70.2732V19H73.3872V13.96C73.3872 13.66 73.4352 13.408 73.5312 13.204C73.6392 13 73.7832 12.85 73.9632 12.754C74.1552 12.658 74.3712 12.61 74.6112 12.61C75.0192 12.61 75.2952 12.73 75.4392 12.97C75.5832 13.198 75.6552 13.528 75.6552 13.96ZM80.6744 7.714C80.6744 8.182 80.8424 8.566 81.1784 8.866C81.5264 9.166 81.9404 9.316 82.4204 9.316C82.9124 9.316 83.3264 9.166 83.6624 8.866C84.0104 8.566 84.1844 8.182 84.1844 7.714C84.1844 7.234 84.0104 6.844 83.6624 6.544C83.3264 6.244 82.9124 6.094 82.4204 6.094C81.9404 6.094 81.5264 6.244 81.1784 6.544C80.8424 6.844 80.6744 7.234 80.6744 7.714ZM80.9264 10.72V19H83.9144V10.72H80.9264ZM85.0529 10.72V13.24H91.0109V10.72H85.0529ZM86.5469 7.84V19H89.5169V7.84H86.5469ZM101.124 10.72H97.9737L95.3097 17.398L96.9477 17.416L94.2657 10.72H90.8817L94.5897 18.478L92.6457 22.96H95.7237L101.124 10.72ZM100.896 17.632C100.896 18.136 101.07 18.574 101.418 18.946C101.778 19.306 102.24 19.486 102.804 19.486C103.368 19.486 103.824 19.306 104.172 18.946C104.52 18.574 104.694 18.136 104.694 17.632C104.694 17.116 104.52 16.678 104.172 16.318C103.824 15.946 103.368 15.76 102.804 15.76C102.24 15.76 101.778 15.946 101.418 16.318C101.07 16.678 100.896 17.116 100.896 17.632Z" fill="#1D1F23"/>
<path d="M33 16.5C36.5 23 20.1127 14.5 11 14.5C1.8873 14.5 0 25.6127 0 16.5C0 7.3873 7.3873 0 16.5 0C25.6127 0 10 6.5 33 16.5Z" fill="#D9534F"/>
</svg>
